HIERARCHY
ROOT root
{
	OFFSET 0.000000 0.000000 0.000000
	CHANNELS 6 Xposition Yposition Zposition Zrotation Yrotation Xrotation
	JOINT lhip
	{
		OFFSET 0.058581 -0.082280 -0.017664
		CHANNELS 3 Zrotation Yrotation Xrotation
		JOINT lknee
		{
			OFFSET 0.043451 -0.386469 0.008037
			CHANNELS 3 Zrotation Yrotation Xrotation
			JOINT lankle
			{
				OFFSET -0.014790 -0.426874 -0.037428
				CHANNELS 3 Zrotation Yrotation Xrotation
				JOINT ltoe
				{
					OFFSET 0.041054 -0.060286 0.122042
					CHANNELS 3 Zrotation Yrotation Xrotation
					End Site
					{
						OFFSET 0.000000 0.000000 0.000000
					}
				}
			}
		}
	}
	JOINT rhip
	{
		OFFSET -0.060310 -0.090513 -0.013543
		CHANNELS 3 Zrotation Yrotation Xrotation
		JOINT rknee
		{
			OFFSET -0.043257 -0.383688 -0.004843
			CHANNELS 3 Zrotation Yrotation Xrotation
			JOINT rankle
			{
				OFFSET 0.019056 -0.420046 -0.034562
				CHANNELS 3 Zrotation Yrotation Xrotation
				JOINT rtoe
				{
					OFFSET -0.034840 -0.062106 0.130323
					CHANNELS 3 Zrotation Yrotation Xrotation
					End Site
					{
						OFFSET 0.000000 0.000000 0.000000
					}
				}
			}
		}
	}
	JOINT lowerback
	{
		OFFSET 0.004439 0.124404 -0.038385
		CHANNELS 3 Zrotation Yrotation Xrotation
		JOINT upperback
		{
			OFFSET 0.004488 0.137956 0.026820
			CHANNELS 3 Zrotation Yrotation Xrotation
			JOINT chest
			{
				OFFSET -0.002265 0.056032 0.002855
				CHANNELS 3 Zrotation Yrotation Xrotation
				JOINT lowerneck
				{
					OFFSET -0.013390 0.211636 -0.033468
					CHANNELS 3 Zrotation Yrotation Xrotation
					JOINT upperneck
					{
						OFFSET 0.010113 0.088937 0.050410
						CHANNELS 3 Zrotation Yrotation Xrotation
						End Site
						{
							OFFSET 0.000000 0.000000 0.000000
						}
					}
				}
				JOINT lclavicle
				{
					OFFSET 0.071702 0.114000 -0.018898
					CHANNELS 3 Zrotation Yrotation Xrotation
					JOINT lshoulder
					{
						OFFSET 0.122921 0.045205 -0.019046
						CHANNELS 3 Zrotation Yrotation Xrotation
						JOINT lelbow
						{
							OFFSET 0.255332 -0.015649 -0.022946
							CHANNELS 3 Zrotation Yrotation Xrotation
							JOINT lwrist
							{
								OFFSET 0.265709 0.012698 -0.007375
								CHANNELS 3 Zrotation Yrotation Xrotation
								End Site
								{
									OFFSET 0.000000 0.000000 0.000000
								}
							}
						}
					}
				}
				JOINT rclavicle
				{
					OFFSET -0.082954 0.112472 -0.023707
					CHANNELS 3 Zrotation Yrotation Xrotation
					JOINT rshoulder
					{
						OFFSET -0.113228 0.046853 -0.008472
						CHANNELS 3 Zrotation Yrotation Xrotation
						JOINT relbow
						{
							OFFSET -0.260127 -0.014369 -0.031269
							CHANNELS 3 Zrotation Yrotation Xrotation
							JOINT rwrist
							{
								OFFSET -0.269108 0.006794 -0.006027
								CHANNELS 3 Zrotation Yrotation Xrotation
								End Site
								{
									OFFSET 0.000000 0.000000 0.000000
								}
							}
						}
					}
				}
			}
		}
	}
}
MOTION
Frames: 8
Frame Time: 0.033333
0.008069 0.225589 1.007757 78.802678 -0.945081 83.327058 6.456618 5.247697 6.240350 -4.050103 -2.318549 7.184383 -3.188940 18.259818 -5.371038 0.000000 -0.000000 0.000000 -1.027894 -4.111621 0.192374 1.753855 5.846722 11.318181 4.666333 -12.176664 -6.555528 0.000000 -0.000000 0.000000 1.137412 -1.985621 11.733996 -3.995164 -1.540498 4.536351 -0.582704 -3.701504 6.819955 -6.540382 -6.432839 12.044476 3.838446 19.297932 2.182560 -12.645036 8.846343 8.717000 -49.240426 15.438285 16.302438 -43.507808 -60.267723 41.365040 11.835842 -0.769110 -55.683383 -6.162608 -7.898992 -4.003793 29.093725 -2.365375 10.194496 27.319368 71.796904 23.356838 21.306797 9.341382 -38.913748 
0.008498 0.224572 1.007812 79.478948 -0.854273 83.089921 6.741713 5.171998 5.969156 -4.212087 -2.952640 7.991645 -3.396659 18.393363 -5.552778 0.000000 -0.000000 0.000000 -0.960191 -4.291167 0.487513 2.089370 5.939396 11.516196 4.878590 -13.057619 -6.534104 0.000000 -0.000000 0.000000 0.977001 -1.835446 11.616451 -4.654685 -1.292479 4.148628 -0.933878 -3.850598 7.092913 -6.253616 -6.973581 12.697831 4.467282 20.437649 2.231237 -12.779282 8.772786 8.184301 -47.777795 15.346044 16.092085 -42.992865 -60.378749 40.131232 11.683700 -1.836381 -53.838785 -7.614616 -7.555777 -4.364664 23.848651 -1.786210 8.294359 29.239323 72.079924 23.467258 21.868137 10.285808 -38.522334 
0.009267 0.224231 1.007395 80.462005 -0.723718 82.939640 7.066348 4.880218 5.502547 -4.432346 -3.505690 8.948952 -3.597373 18.378150 -5.715159 0.000000 -0.000000 0.000000 -0.935111 -4.592527 0.926944 2.310142 5.926624 11.333915 4.946116 -13.636860 -6.677884 0.000000 -0.000000 0.000000 0.924902 -1.794685 11.261336 -5.286257 -1.116121 4.051246 -1.247678 -3.876514 7.387047 -6.054750 -7.609002 13.301507 5.151842 21.520021 2.072709 -12.851184 8.683703 7.596101 -46.906173 15.304404 16.089390 -41.950132 -60.602943 38.504187 11.785446 -2.341939 -52.893173 -9.299145 -7.313412 -4.800774 19.079611 -1.266202 6.532102 29.940165 72.666090 23.485583 22.330489 11.068618 -37.827342 
0.008936 0.224274 1.007177 81.668330 -0.601926 82.721993 7.408899 4.487771 4.914058 -4.731853 -3.984290 10.053599 -3.783847 18.244230 -5.756287 0.000000 -0.000000 0.000000 -0.896047 -4.891028 1.313512 2.510175 5.799217 11.322427 4.894025 -14.254419 -6.959764 0.000000 -0.000000 0.000000 0.969045 -1.700940 11.301978 -6.125464 -0.837238 3.731927 -1.726267 -3.954072 7.575502 -5.504250 -8.316622 13.695018 6.023555 22.705587 2.390444 -13.022032 8.593850 7.086664 -45.881288 15.333276 15.994047 -40.813981 -60.902403 36.748210 11.816670 -3.234909 -52.168645 -11.364607 -6.787084 -5.345707 13.727806 -0.599777 4.448394 28.919655 73.738674 21.872719 22.836414 12.932771 -37.099884 
0.009293 0.224398 1.007058 82.282838 -0.597469 82.477022 7.568246 4.471737 4.890670 -4.903530 -4.286694 10.426868 -3.935139 18.124009 -5.670829 0.000000 -0.000000 0.000000 -0.958313 -5.058719 1.695734 2.594174 5.802323 11.294811 4.902704 -14.574538 -7.148414 0.000000 -0.000000 0.000000 0.971242 -1.614886 11.532021 -6.648817 -0.597272 3.314783 -2.016765 -3.933910 7.807724 -5.169622 -8.796382 13.846378 6.529777 23.313779 2.664383 -12.993750 8.536115 6.825979 -45.523525 15.336844 16.027797 -40.156757 -60.789816 35.954557 12.490066 -3.311904 -52.031541 -12.611581 -6.395778 -5.774057 10.796366 0.015729 3.109668 27.523457 73.834494 20.031628 21.909579 13.621308 -36.807066 
0.008531 0.224627 1.006956 83.211513 -0.541621 82.353807 7.826565 4.385422 4.367394 -5.166128 -4.694383 11.194984 -4.116846 17.813147 -5.516095 0.000000 -0.000000 0.000000 -0.948374 -5.225183 1.861226 2.704338 5.601813 11.322480 4.818075 -14.921367 -7.261754 0.000000 -0.000000 0.000000 0.954185 -1.502550 11.733478 -7.252196 -0.332768 3.005818 -2.336039 -3.877157 7.880439 -4.494243 -9.301831 14.019663 7.104278 23.721989 2.869151 -13.043843 8.428119 6.532726 -45.107969 15.283676 16.069947 -39.427729 -60.654818 35.398938 11.766259 -4.079131 -52.141469 -14.094141 -5.722473 -6.166487 6.985574 0.957333 1.211881 24.072512 73.946563 15.842529 21.141076 14.111298 -37.468836 
0.008173 0.225011 1.006997 84.034308 -0.558796 82.172917 7.966971 4.258170 4.014298 -5.420403 -5.181745 11.845786 -4.652250 17.582776 -5.327819 0.000000 -0.000000 0.000000 -1.013497 -5.496009 2.175494 2.702827 5.475809 11.204161 4.772391 -15.215332 -7.287141 0.000000 -0.000000 0.000000 0.910231 -1.287722 11.954772 -7.824213 -0.069062 2.796525 -2.590695 -3.646078 8.007130 -3.960657 -9.937496 14.121787 7.633206 23.820808 2.914827 -13.095335 8.243061 5.993095 -44.785598 15.386293 16.241702 -38.530335 -60.463390 34.912876 11.849483 -4.501919 -51.866087 -15.448929 -4.928201 -6.682661 3.399858 1.866487 -0.876507 19.451600 73.428007 10.654575 20.376170 13.945836 -37.341589 
0.007348 0.225348 1.007262 84.893035 -0.547927 82.098724 8.071532 4.029548 3.509444 -5.612797 -5.563987 12.485306 -4.794857 17.285797 -5.122599 0.000000 -0.000000 0.000000 -0.961970 -5.745185 2.327386 2.563708 5.302517 11.097689 4.727284 -15.581047 -7.226919 0.000000 -0.000000 0.000000 0.897185 -1.053731 12.135114 -8.356500 0.285767 2.767384 -2.767737 -3.360867 7.972049 -3.577280 -10.826729 14.193059 8.156033 23.917147 2.815727 -13.145529 7.996256 5.716847 -44.553646 15.379739 16.275368 -37.658579 -60.456362 34.365449 11.969284 -4.974956 -51.568537 -16.711672 -3.981237 -7.202643 0.059510 2.632128 -3.230082 14.523609 72.415158 5.109394 20.018067 14.525483 -36.728604 
